<svg xmlns="http://www.w3.org/2000/svg" width="28" height="27">
    <path fill-rule="evenodd" fill="#2E2E2E" d="M25.98 26.546h-3.33c-1.47 0-2.191-.726-2.191-1.617v-5.136c0-.892.721-1.617 2.191-1.617h3.33c.884 0 1.606.725 1.606 1.617v5.136c0 .891-.722 1.617-1.606 1.617zm.124-6.753c0-.069.386-.125-.124-.125h-3.33c-.653 0-.709.056-.709.125v5.136c0 .069.056.611.709.611h3.33c.51 0 .124-.542.124-.611v-5.136zm-.124-2.191h-3.33c-1.47 0-2.191-.725-2.191-1.617v-5.136c0-.891.721-1.617 2.191-1.617h3.33c.884 0 1.606.726 1.606 1.617v5.136c0 .892-.722 1.617-1.606 1.617zm.124-6.753c0-.069.386-.125-.124-.125h-3.33c-.653 0-.709.056-.709.125v5.136c0 .565.056.126.709.126h3.33c.51 0 .124.439.124-.126v-5.136zm-.124-2.191h-3.33c-1.47 0-2.191-.725-2.191-1.248V1.906c0-.766.721-1.617 2.191-1.617h3.33c.884 0 1.606.851 1.606 1.617V7.41c0 .523-.722 1.248-1.606 1.248zm.124-6.752c0-.07.386-.126-.124-.126h-3.33c-.653 0-.709.056-.709.126V7.41c0-.3.056-.243.709-.243h3.33c.51 0 .124-.057.124.243V1.906zm-7.98 20.664h-3.916c-.887 0-1.604-1.239-1.604-2.131v-5.136a1.61 1.61 0 0 1 1.604-1.616h3.916c1.676 0 1.606.725 1.606 1.616v5.136c0 .892.07 2.131-1.606 2.131zm.124-7.267a.124.124 0 0 0-.124-.124h-3.916c-.068 0 .632.056.632.124v5.136c0 .07-.7.126-.632.126h3.916a.124.124 0 0 0 .124-.126v-5.136zm-.124-2.193h-3.916a1.61 1.61 0 0 1-1.604-1.617V6.358c0-.892.717-1.618 1.604-1.618h3.916c1.676 0 1.606.726 1.606 1.618v5.135c0 .892.07 1.617-1.606 1.617zm.124-6.752a.124.124 0 0 0-.124-.126h-3.916c-.068 0 .632.056.632.126v5.135c0 .07-.7.126-.632.126h3.916a.124.124 0 0 0 .124-.126V6.358zM10.41 17.602H6.125a1.613 1.613 0 0 1-1.606-1.617v-5.136c0-.891.72-1.617 1.606-1.617h4.285c.515 0 1.237.726 1.237 1.617v5.136c0 .892-.722 1.617-1.237 1.617zm-.246-6.753c0-.069-.055-.125.246-.125H6.125c.425 0-.125.056-.125.125v5.136c0 .565.55.126.125.126h4.285c-.301 0-.246.439-.246-.126v-5.136zm-2.827-4.43c-.144.146-.037.219-.523.219a.748.748 0 0 1-.524-1.274l1.086-1.093c-1.131.081-2.942.403-4.222 1.591-1.012.939-1.531 2.285-1.544 4.002a.742.742 0 0 1-.74.741H.866a.745.745 0 0 1-.737-.751c.015-2.152.698-3.866 2.029-5.096C3.82 3.22 6.76 2.847 7.411 2.77L6.29 1.641a.748.748 0 0 1 0-1.055c.289-.291 1.19-.291 1.047 0L9.71 2.975c.139.14.217.329.217.527s-.078.388-.217.798L7.337 6.419zM.866 15.985H.87c.407 0 .738.331.74.741.013 1.717.532 3.064 1.544 4.002 1.28 1.188 3.094 1.511 4.223 1.592L6.29 21.226a.748.748 0 0 1 0-1.055c.289-.292 1.19-.292 1.047 0L9.71 22.56c.139.14.217.329.217 1.31 0-.585-.078-.395-.217-.255L7.337 26.4c-.144-.25-.037-.177-.523-.177-.19 0-.379-.073-.524.177-.29-.688-.29-1.16 0-1.451l1.121-1.129c-.651-.077-3.591-.45-5.253-1.988C.827 20.603.144 18.888.129 16.736a.745.745 0 0 1 .737-.751z"/>
</svg>
