<?xml version="1.0" encoding="UTF-8"?>
<svg xmlns="http://www.w3.org/2000/svg" xmlns:xlink="http://www.w3.org/1999/xlink" width="26px" height="27px" viewBox="0 0 26 27" version="1.1">
<g id="surface1">
<path style=" stroke:none;fill-rule:nonzero;fill:rgb(18.039216%,18.039216%,18.431373%);fill-opacity:1;" d="M 15.84375 12.136719 C 15.421875 12.136719 15.082031 11.800781 15.082031 11.378906 L 15.082031 6.738281 C 15.082031 6.320312 15.421875 5.980469 15.84375 5.980469 C 16.265625 5.980469 16.605469 6.320312 16.605469 6.738281 L 16.605469 11.378906 C 16.605469 11.800781 16.265625 12.136719 15.84375 12.136719 Z M 15.84375 12.136719 "/>
<path style=" stroke:none;fill-rule:nonzero;fill:rgb(18.039216%,18.039216%,18.431373%);fill-opacity:1;" d="M 22.867188 7.496094 L 0.796875 7.496094 C 0.375 7.496094 0.0351562 7.15625 0.0351562 6.738281 C 0.0351562 6.320312 0.375 5.980469 0.796875 5.980469 L 22.867188 5.980469 C 23.289062 5.980469 23.628906 6.320312 23.628906 6.738281 C 23.628906 7.15625 23.289062 7.496094 22.867188 7.496094 Z M 22.867188 7.496094 "/>
<path style=" stroke:none;fill-rule:nonzero;fill:rgb(18.039216%,18.039216%,18.431373%);fill-opacity:1;" d="M 11.570312 12.808594 L 0.796875 12.808594 C 0.375 12.808594 0.0351562 12.46875 0.0351562 12.050781 C 0.0351562 11.628906 0.375 11.292969 0.796875 11.292969 L 11.570312 11.292969 C 11.992188 11.292969 12.332031 11.628906 12.332031 12.050781 C 12.332031 12.46875 11.992188 12.808594 11.570312 12.808594 Z M 11.570312 12.808594 "/>
<path style=" stroke:none;fill-rule:nonzero;fill:rgb(18.039216%,18.039216%,18.431373%);fill-opacity:1;" d="M 11.125 23.402344 L 0.796875 23.402344 C 0.375 23.402344 0.0351562 23.0625 0.0351562 22.644531 C 0.0351562 22.222656 0.375 21.886719 0.796875 21.886719 L 11.125 21.886719 C 11.546875 21.886719 11.886719 22.222656 11.886719 22.644531 C 11.886719 23.0625 11.546875 23.402344 11.125 23.402344 Z M 11.125 23.402344 "/>
<path style=" stroke:none;fill-rule:nonzero;fill:rgb(18.039216%,18.039216%,18.431373%);fill-opacity:1;" d="M 22.9375 13.015625 C 22.515625 13.015625 22.175781 12.679688 22.175781 12.257812 L 22.175781 0.816406 C 22.175781 0.394531 22.515625 0.0585938 22.9375 0.0585938 C 23.359375 0.0585938 23.699219 0.394531 23.699219 0.816406 L 23.699219 12.257812 C 23.699219 12.679688 23.359375 13.015625 22.9375 13.015625 Z M 22.9375 13.015625 "/>
<path style=" stroke:none;fill-rule:nonzero;fill:rgb(18.039216%,18.039216%,18.431373%);fill-opacity:1;" d="M 0.796875 23.4375 C 0.375 23.4375 0.0351562 23.097656 0.0351562 22.679688 L 0.0351562 0.757812 C 0.0351562 0.335938 0.375 0 0.796875 0 L 22.867188 0 C 23.289062 0 23.628906 0.335938 23.628906 0.757812 C 23.628906 1.175781 23.289062 1.515625 22.867188 1.515625 L 1.5625 1.515625 L 1.5625 22.679688 C 1.5625 23.097656 1.222656 23.4375 0.796875 23.4375 Z M 0.796875 23.4375 "/>
<path style=" stroke:none;fill-rule:nonzero;fill:rgb(18.039216%,18.039216%,18.431373%);fill-opacity:1;" d="M 7.824219 23.4375 C 7.402344 23.4375 7.0625 23.097656 7.0625 22.679688 L 7.0625 6.738281 C 7.0625 6.320312 7.402344 5.980469 7.824219 5.980469 C 8.246094 5.980469 8.585938 6.320312 8.585938 6.738281 L 8.585938 22.683594 C 8.585938 23.105469 8.246094 23.441406 7.824219 23.441406 Z M 7.824219 23.4375 "/>
<path style=" stroke:none;fill-rule:nonzero;fill:rgb(18.039216%,18.039216%,18.431373%);fill-opacity:1;" d="M 9.351562 18.117188 L 0.796875 18.117188 C 0.375 18.117188 0.0351562 17.78125 0.0351562 17.359375 C 0.0351562 16.941406 0.375 16.605469 0.796875 16.605469 L 9.351562 16.605469 C 9.773438 16.605469 10.117188 16.941406 10.117188 17.359375 C 10.117188 17.78125 9.773438 18.117188 9.351562 18.117188 Z M 9.351562 18.117188 "/>
<path style=" stroke:none;fill-rule:nonzero;fill:rgb(18.039216%,18.039216%,18.431373%);fill-opacity:1;" d="M 17.9375 24.214844 C 15.058594 24.214844 12.710938 21.886719 12.710938 19.027344 C 12.710938 16.167969 15.058594 13.835938 17.9375 13.835938 C 20.816406 13.835938 23.160156 16.167969 23.160156 19.027344 C 23.160156 21.886719 20.816406 24.214844 17.9375 24.214844 Z M 17.9375 15.351562 C 15.894531 15.351562 14.238281 17 14.238281 19.027344 C 14.238281 21.054688 15.894531 22.703125 17.9375 22.703125 C 19.976562 22.703125 21.636719 21.054688 21.636719 19.027344 C 21.636719 17 19.976562 15.351562 17.9375 15.351562 Z M 17.9375 15.351562 "/>
<path style=" stroke:none;fill-rule:nonzero;fill:rgb(18.039216%,18.039216%,18.431373%);fill-opacity:1;" d="M 25.203125 27 C 25.007812 27 24.808594 26.925781 24.660156 26.777344 L 20.558594 22.703125 C 20.257812 22.40625 20.257812 21.925781 20.558594 21.628906 C 20.855469 21.332031 21.335938 21.332031 21.636719 21.628906 L 25.742188 25.707031 C 26.039062 26.003906 26.039062 26.480469 25.742188 26.777344 C 25.59375 26.925781 25.394531 27 25.203125 27 Z M 25.203125 27 "/>
</g>
</svg>
