<svg xmlns="http://www.w3.org/2000/svg" width="26" height="27">
    <path fill-rule="evenodd" fill="#2E2E2E" d="M24.911 26.334a.689.689 0 0 1-.489.202c-.177 0 .258-.067-.489-.202L20.499 22.9a4.851 4.851 0 0 1-2.927.994 4.904 4.904 0 0 1-4.9-4.898c0-2.702 2.198-4.036 4.9-4.036 2.701 0 4.899 1.334 4.899 4.036 0 1.974.449 2.107-.994 2.926l3.434 3.434c.27.27.27 1.284 0 .978zm-7.339-10.855c-1.939 0-3.032 2.081-3.032 3.517 0 1.938 1.093 3.516 3.032 3.516 1.938 0 4.308-1.578 4.308-3.516 0-1.436-2.37-3.517-4.308-3.517zm4.716-2.216a.691.691 0 0 1-.691-.691V8.19h-5.305v3.546a.691.691 0 0 1-1.383 0V8.19H8.723v3.49h2.842c.381 0 .691.309.691.691 0 .382-.31 1.249-.691 1.249H8.723v3.103h.752c.382 0 .691.597.691.691a.69.69 0 0 1-.691.691h-.752v3.633h2.423c.382 0 .692.732.692.691 0 .382-.31.691-.692.691H8.198c-.055.014.712.034.122.034-.347 0-.399-.02-.454-.034H1.575c-.055.014-.107.034-.166.034-.139 0-.692-.31-.692-.691V1.652c0-.382.553-.691.692-.691h20.815c.198 0 .374.509.5.22a.68.68 0 0 1 .256.525v10.866a.69.69 0 0 1-.692.691zM2.1 21.738h5.24v-3.633H2.1v3.633zm0-5.015h5.24V13.62H2.1v3.103zm0-5.043h5.24V8.19H2.1v3.49zm19.497-9.337H2.1v4.294h19.497V2.343z"/>
</svg>
