<svg xmlns="http://www.w3.org/2000/svg" width="32" height="26" style=""><rect id="backgroundrect" width="100%" height="100%" x="0" y="0" fill="none" stroke="none"/>
    
<g class="currentLayer" style=""><title>Layer 1</title><path fill-rule="evenodd" fill="#000000" d="M29.789 24.493a.745.745 0 0 1-.541.234c.372 0-.373-.069-.517-.209a.76.76 0 0 1-.026-1.068 2.977 2.977 0 0 0 .817-2.056v-.132c0-.418.336-.756.75-.756.412 0 .918.338.918.756v.132c0 1.159-.608 2.26-1.401 3.099zm.483-5.113c-.414 0-.75-.68-.75-1.097v-2.978c0-.418.336-.756.75-.756.412 0 .918.338.918.756v2.978c0 .417-.506 1.097-.918 1.097zm0-5.57c-.414 0-.75-1.067-.75-1.484V9.347c0-.417.336-.755.75-.755.412 0 .918.338.918.755v2.979c0 .417-.506 1.484-.918 1.484zm0-6.686a.753.753 0 0 1-.75-.756V4.489c0-.295-.042-.586-.127-.864a.758.758 0 0 1 .501-.941.748.748 0 0 1 .934.503c.126.421.36 1.263.36 1.302v1.879c0 .418-.506.756-.918.756zM28.277 1.93c-.117 0 .133-.027-.345-.085-.423-.223-.422-.336-1.361-.336h-1.178a.752.752 0 0 1-.748-.755c0-.417.336-.754.748-.754h1.178a4.42 4.42 0 0 1 2.052.505.76.76 0 0 1 .319 1.019.75.75 0 0 1-.665.406zm-5.779 13.776h-4.87v1.698c0 1.015-.82 1.84-1.825 1.84H9.47a1.833 1.833 0 0 1-1.822-1.84v-4.907c0-1.015.818-1.84 1.822-1.84h3.843V8.126c0-.836.884-1.99 1.972-1.99h7.213c1.086 0 1.971 1.154 1.971 1.99v5.59c0 1.097-.885 1.99-1.971 1.99zm-9.185-1.99v-1.549H9.47a.329.329 0 0 0-.325.33v4.907c0 .182.147.33.325.33h6.333a.329.329 0 0 0 .328-.33v-1.698h-.846a1.983 1.983 0 0 1-1.972-1.99zm2.818.479v-1.698a.329.329 0 0 0-.328-.33h-.993v1.549c0 .264.43.479.475.479h.846zm6.842-6.069a.48.48 0 0 0-.475-.48h-7.213c-.045 0-.475.216-.475.48v2.531h.993c1.005 0 1.825.825 1.825 1.84v1.698h4.87c.26 0 .475-.215.475-.479v-5.59zm-.532-6.617H19.49c.28 0-.748-.338-.748-.755S19.77 0 19.49 0h2.951c.414 0 .75.337.75.754a.753.753 0 0 1-.75.755zm-5.902 0h-2.952a.753.753 0 0 1-.749-.755c0-.417.337-.754.749-.754h2.952a.75.75 0 0 1 .748.754.75.75 0 0 1-.748.755zm-5.903 0H7.685a.752.752 0 0 1-.748-.755c0-.417.336-.754.748-.754h2.951c.854 0 .749.337.749.754s.105.755-.749.755zm-1.025 23.62a.752.752 0 0 1-.749.755H5.91a.75.75 0 0 1-.748-.755c0-.417.334-.756.748-.756h2.952c.413 0 .749.339.749.756zM4.738 1.51a2.919 2.919 0 0 0-2.107.91c-.146.153-.343.231.309.231-1.035 0-1.222-.071-1.368-.212a.763.763 0 0 1-.018-1.068C2.393.493 3.522.7 4.728 0h.006a.75.75 0 0 1 .747.751.75.75 0 0 1-.743.759zM1.803 4.599v2.979c0 .417-.335.755-.253.755-.908 0-1.244-.338-1.244-.755V4.599c0-.417.336-.755 1.244-.755-.082 0 .253.338.253.755zM1.55 9.801c-.082 0 .253.338.253.755v2.979c0 .417-.335.755-.253.755-.908 0-1.244-.338-1.244-.755v-2.979c0-.417.336-.755 1.244-.755zm0 5.957c-.082 0 .253 1.202.253.756v2.978c0 .417-.335.755-.253.755-.908 0-1.244-.338-1.244-.755v-2.978c0 .446.336-.756 1.244-.756zm-.557 5.974a.745.745 0 0 1 .929.509c.226 1.259.756 1.416 1.456 2.069.365-.084.506.373.312 1.2-.134-.203-.394-.056-.41-.056-.37 0-.489-.029-.6-.088a4.51 4.51 0 0 1-2.191-2.695.755.755 0 0 1 .504-.939zm10.82 2.641h2.951c.413 0 .749.339.749.756a.752.752 0 0 1-.749.755h-2.951c-.413 0-.173-.338-.173-.755s-.24-.756.173-.756zm5.902 0h2.952c1.143 0 .748.339.748.756s.395.755-.748.755h-2.952a.75.75 0 0 1-.747-.755c0-.417.334-.756.747-.756zm5.904 0h3.86c.412 0 .748.339.748.756a.752.752 0 0 1-.748.755h-3.86a.752.752 0 0 1-.749-.755c0-.417.335-.756.749-.756z" id="svg_1" class="selected" fill-opacity="1"/></g></svg>