<svg xmlns="http://www.w3.org/2000/svg" width="28" height="29">
    <path fill-rule="evenodd" fill='#2e2e2e' d="M26.896 14.706h-2.617c-.382 0-.691-.308-.691-.516 0-.55.309-.858.691-.858h2.617c.381 0 .691.308.691.858 0 .208-.31.516-.691.516zM21.7 7.156a.688.688 0 0 1-.488.201c.128 0-.353-.067-.49-.201a.683.683 0 0 1 0-.971l2.777-2.758a.694.694 0 0 1 .977 0 .681.681 0 0 1 0 .971L21.7 7.156zM16.466 22.75v.364c0 .38-.309.687-.691.687h-3.927a.688.688 0 0 1-.69-.687v-.364c-3.493-1.806-5.888-5.045-5.888-8.56 0-4.848 3.831-8.654 8.541-8.654 4.711 0 8.542 3.806 8.542 8.654 0 3.514-2.395 6.753-5.887 8.56zM13.811 6.909c-3.946 0-7.158 4.081-7.158 7.281 0 3.068 2.207 6.67 5.567 6.706a.924.924 0 0 1 .321.664v.868h3.289v-.868c0-.313-.534-.587-.229-.664 3.161-.046 5.369-3.638 5.369-6.706 0-3.2-3.211-7.281-7.159-7.281zm0-2.598c-.382 0-.692-.011-.692-.687V1.25c0-.604.31-.912.692-.912.383 0 .692.308.692.912v2.374c0 .676-.309.687-.692.687zM6.409 7.357c-.178 0 .141-.067-.489-.201L3.144 4.398a.683.683 0 0 1 0-.971.695.695 0 0 1 .978 0l2.775 2.758a.681.681 0 0 1 0 .971.691.691 0 0 1-.488.201zM4.36 14.19c0 .208-.633.516-1.015.516H.728c-.381 0-.368-.308-.368-.516 0-.55-.013-.858.368-.858h2.617c.382 0 1.015.308 1.015.858zm7.488 11.08h3.927c.382 0 .691.064.691.444 0 1.216-.309.686-.691.686h-3.927c-.381 0-.69.53-.69-.686 0-.38.309-.444.69-.444zm1.309 2.356h1.309c.381 0 .691.307.691.686 0 .38-.31.687-.691.687h-1.309a.688.688 0 0 1-.691-.687c0-.379.309-.686.691-.686z"/>
</svg>
