<svg xmlns="http://www.w3.org/2000/svg" width="25" height="26">
    <path fill-rule="evenodd" fill="#2E2E2E" d="M24.631 25.139a.619.619 0 0 1-.443.184c.072 0-.322-.061-.444-.184l-8.975-8.997a8.62 8.62 0 0 1-5.665 2.125c-4.782 0-8.673-3.9-8.673-8.694C.431 4.779 4.322.879 9.104.879s8.673 3.9 8.673 8.694a8.664 8.664 0 0 1-2.12 5.679l8.974 8.996a.63.63 0 0 1 0 .891zM16.52 9.573c0-4.099-3.327-7.434-7.416-7.434-3.954 0-7.416 3.335-7.416 7.434S5.15 17.7 9.104 17.7c4.089 0 7.416-4.028 7.416-8.127zm-3.896.63H9.733v2.898a.63.63 0 1 1-1.258 0v-2.898h-2.89a.628.628 0 0 1-.628-.63c0-.348.28-.63.628-.63h2.89V6.45c0-.753.282-1.035.629-1.035.348 0 .629.282.629 1.035v2.493h2.891a.629.629 0 0 1 0 1.26z"/>
</svg>
