<?xml version="1.0" encoding="UTF-8"?><svg id="Layer_2" xmlns="http://www.w3.org/2000/svg" viewBox="0 0 48.6 48.6"><defs><style>.cls-1{fill:#2e2e2f;}</style></defs><g id="Layer_1-2"><path class="cls-1" d="m17.3,34.6C7.76,34.6,0,26.84,0,17.3S7.76,0,17.3,0s17.3,7.76,17.3,17.3-7.76,17.3-17.3,17.3Zm0-32c-8.11,0-14.7,6.59-14.7,14.7s6.59,14.7,14.7,14.7,14.7-6.59,14.7-14.7S25.41,2.6,17.3,2.6Z"/><path class="cls-1" d="m47.3,48.6c-.33,0-.67-.13-.92-.38l-18.69-18.69c-.51-.51-.51-1.33,0-1.84s1.33-.51,1.84,0l18.69,18.69c.51.51.51,1.33,0,1.84-.25.25-.59.38-.92.38Z"/><path class="cls-1" d="m24.3,18.6h-14c-.72,0-1.3-.58-1.3-1.3s.58-1.3,1.3-1.3h14c.72,0,1.3.58,1.3,1.3s-.58,1.3-1.3,1.3Z"/><path class="cls-1" d="m17.3,25.6c-.72,0-1.3-.58-1.3-1.3v-14c0-.72.58-1.3,1.3-1.3s1.3.58,1.3,1.3v14c0,.72-.58,1.3-1.3,1.3Z"/></g></svg>