<?xml version="1.0" encoding="UTF-8"?>
<svg xmlns="http://www.w3.org/2000/svg" xmlns:xlink="http://www.w3.org/1999/xlink" width="25px" height="25px" viewBox="0 0 25 25" version="1.1">
<g id="surface1">
<path style=" stroke:none;fill-rule:nonzero;fill:rgb(18.039216%,18.039216%,18.431373%);fill-opacity:1;" d="M 8.898438 17.796875 C 3.992188 17.796875 0 13.804688 0 8.898438 C 0 3.992188 3.992188 0 8.898438 0 C 13.804688 0 17.796875 3.992188 17.796875 8.898438 C 17.796875 13.804688 13.804688 17.796875 8.898438 17.796875 Z M 8.898438 1.335938 C 4.726562 1.335938 1.335938 4.726562 1.335938 8.898438 C 1.335938 13.070312 4.726562 16.460938 8.898438 16.460938 C 13.070312 16.460938 16.460938 13.070312 16.460938 8.898438 C 16.460938 4.726562 13.070312 1.335938 8.898438 1.335938 Z M 8.898438 1.335938 "/>
<path style=" stroke:none;fill-rule:nonzero;fill:rgb(18.039216%,18.039216%,18.431373%);fill-opacity:1;" d="M 24.332031 25 C 24.160156 25 23.988281 24.933594 23.859375 24.804688 L 14.242188 15.191406 C 13.980469 14.929688 13.980469 14.507812 14.242188 14.242188 C 14.507812 13.980469 14.929688 13.980469 15.191406 14.242188 L 24.804688 23.859375 C 25.066406 24.121094 25.066406 24.542969 24.804688 24.804688 C 24.675781 24.933594 24.5 25 24.332031 25 Z M 24.332031 25 "/>
<path style=" stroke:none;fill-rule:nonzero;fill:rgb(18.039216%,18.039216%,18.431373%);fill-opacity:1;" d="M 12.5 9.566406 L 5.296875 9.566406 C 4.929688 9.566406 4.628906 9.269531 4.628906 8.898438 C 4.628906 8.527344 4.929688 8.230469 5.296875 8.230469 L 12.5 8.230469 C 12.871094 8.230469 13.167969 8.527344 13.167969 8.898438 C 13.167969 9.269531 12.871094 9.566406 12.5 9.566406 Z M 12.5 9.566406 "/>
<path style=" stroke:none;fill-rule:nonzero;fill:rgb(18.039216%,18.039216%,18.431373%);fill-opacity:1;" d="M 8.898438 13.167969 C 8.527344 13.167969 8.230469 12.871094 8.230469 12.5 L 8.230469 5.296875 C 8.230469 4.929688 8.527344 4.628906 8.898438 4.628906 C 9.269531 4.628906 9.566406 4.929688 9.566406 5.296875 L 9.566406 12.5 C 9.566406 12.871094 9.269531 13.167969 8.898438 13.167969 Z M 8.898438 13.167969 "/>
</g>
</svg>
