<?xml version="1.0" ?>

<!-- License: CC Attribution. Made by Hasyim Ari: https://www.behance.net/_hasyimasari/ -->
<svg width="800px" height="800px" viewBox="0 0 24 24" id="SVGRoot" version="1.1" xmlns="http://www.w3.org/2000/svg" xmlns:cc="http://creativecommons.org/ns#" xmlns:dc="http://purl.org/dc/elements/1.1/" xmlns:inkscape="http://www.inkscape.org/namespaces/inkscape" xmlns:rdf="http://www.w3.org/1999/02/22-rdf-syntax-ns#" xmlns:sodipodi="http://sodipodi.sourceforge.net/DTD/sodipodi-0.dtd" xmlns:svg="http://www.w3.org/2000/svg">

<defs id="defs2"/>

<g id="layer1">

<path d="M 10 2 C 5.5935666 2 2 5.5935666 2 10 C 2 14.406433 5.5935666 18 10 18 C 11.844021 18 13.540969 17.365427 14.896484 16.310547 L 20.292969 21.707031 A 1 1 0 0 0 21.707031 21.707031 A 1 1 0 0 0 21.707031 20.292969 L 16.310547 14.896484 C 17.365427 13.540969 18 11.844021 18 10 C 18 5.5935666 14.406433 2 10 2 z M 10 4 C 13.325553 4 16 6.6744469 16 10 C 16 13.325553 13.325553 16 10 16 C 6.6744469 16 4 13.325553 4 10 C 4 6.6744469 6.6744469 4 10 4 z M 10 6 A 1 1 0 0 0 9 7 L 9 9 L 7 9 A 1 1 0 0 0 6 10 A 1 1 0 0 0 7 11 L 9 11 L 9 13 A 1 1 0 0 0 10 14 A 1 1 0 0 0 11 13 L 11 11 L 13 11 A 1 1 0 0 0 14 10 A 1 1 0 0 0 13 9 L 11 9 L 11 7 A 1 1 0 0 0 10 6 z " id="path4927" style="color:#000000;font-style:normal;font-variant:normal;font-weight:normal;font-stretch:normal;font-size:medium;line-height:normal;font-family:sans-serif;font-variant-ligatures:normal;font-variant-position:normal;font-variant-caps:normal;font-variant-numeric:normal;font-variant-alternates:normal;font-variant-east-asian:normal;font-feature-settings:normal;font-variation-settings:normal;text-indent:0;text-align:start;text-decoration:none;text-decoration-line:none;text-decoration-style:solid;text-decoration-color:#000000;letter-spacing:normal;word-spacing:normal;text-transform:none;writing-mode:lr-tb;direction:ltr;text-orientation:mixed;dominant-baseline:auto;baseline-shift:baseline;text-anchor:start;white-space:normal;shape-padding:0;shape-margin:0;inline-size:0;clip-rule:nonzero;display:inline;overflow:visible;visibility:visible;isolation:auto;mix-blend-mode:normal;color-interpolation:sRGB;color-interpolation-filters:linearRGB;solid-color:#000000;solid-opacity:1;vector-effect:none;fill:#000000;fill-opacity:1;fill-rule:nonzero;stroke:none;stroke-width:2;stroke-linecap:round;stroke-linejoin:miter;stroke-miterlimit:4;stroke-dasharray:none;stroke-dashoffset:0;stroke-opacity:1;color-rendering:auto;image-rendering:auto;shape-rendering:auto;text-rendering:auto;enable-background:accumulate;stop-color:#000000;stop-opacity:1;opacity:1"/>

</g>

</svg>