<svg xmlns="http://www.w3.org/2000/svg" width="27" height="27">
    <path fill-rule="evenodd" fill="#2E2E2E" d="M26.316 26.804c-.119.09.204.138-.411.138a.703.703 0 0 1-.187-.026L18.24 24.78l-9.658 2.146a.695.695 0 0 1-.336-.01L.603 24.732c-.293-.083-.493-.351-.493.028V12.69c0-.835.099-1.037.27-1.166a.69.69 0 0 1 .599-.111l7.477 2.135.922-.205a.686.686 0 0 1 .815.518c.082.368.237.733-.518.815l-.558.124v10.609l8.462-1.88V12.92l-1.353.3c-.369.08-.733.48-.815-.518a.683.683 0 0 1 .519-.814l2.184-.485a.683.683 0 0 1 .336.01l8.47 2.183c-.535.084-.333.352-.333.656v12.007c0 .215-.1.416-.271.545zM7.752 14.767l-6.277-1.794v10.588l6.277 1.794V14.767zm17.471 0-6.278-1.794v10.589l6.278 1.793V14.767zM13.485 8.322v10.842a.682.682 0 1 1-1.365 0V8.322a3.961 3.961 0 0 1-3.276-3.894A3.962 3.962 0 0 1 12.801.471a3.963 3.963 0 0 1 3.96 3.957 3.962 3.962 0 0 1-3.276 3.894zm-.684-6.487a2.595 2.595 0 0 0-2.592 2.593c0 1.429 1.163 2.772 2.592 2.772 1.431 0 2.594-1.343 2.594-2.772a2.596 2.596 0 0 0-2.594-2.593zm1.094 3.275a.682.682 0 0 1-.683-.682c0-.226.048-.238-.411-.238-.376 0-.681-.477-.681-.854s.305-.682.681-.682c.98 0 1.776.796 1.776 1.774a.682.682 0 0 1-.682.682z"/>
</svg>
