<svg xmlns="http://www.w3.org/2000/svg" width="35" height="31">
    <path fill-rule="evenodd" fill="#2E2E2E" d="M30.335 30.68H11.747c-2.197 0-3.983-1.762-3.983-3.928V12.675c0-2.165 1.786-3.927 3.983-3.927h18.588c2.197 0 3.983 1.762 3.983 3.927v14.077c0 2.166-1.786 3.928-3.983 3.928zM20.212 10.383h-8.465c-1.282 0-2.325 1.028-2.325 2.292v6.023h10.79v-8.315zm0 9.95H9.422v6.419c0 1.408 1.043 2.698 2.325 2.698h8.465v-9.117zm12.448-7.658c0-1.264-1.042-2.292-2.325-2.292h-8.464v8.315H32.66v-6.023zm0 7.658H21.871v9.117h8.464c1.283 0 2.325-1.29 2.325-2.698v-6.419zM10.221 6.904H6.684v3.489a.825.825 0 0 1-.83.817c-.457 0-.594-.366-.594-.817V6.904H1.488c-.188 0-.83-.366-.83-.034 0-1.235.642-1.601.83-1.601H5.26V1.781c0-.452.137-.818.594-.818.457 0 .83.366.83.818v3.488h3.537c.458 0 1.269.366 1.269 1.601 0-.332-.811.034-1.269.034z"/>
</svg>
