<?xml version="1.0" encoding="UTF-8"?><svg width="34" height="26" id="Layer_2" xmlns="http://www.w3.org/2000/svg" viewBox="0 0 44.1 44.29"><defs><style>.cls-1{fill:#2E2E2E;}.cls-1,.cls-2{stroke-width:0px;}.cls-2{fill:#2E2E2E;}</style></defs><g id="Layer_2-2"><path class="cls-2" d="m33.1,44.01c-.59,0-1.07-.48-1.07-1.07v-22.15c0-.59.48-1.07,1.07-1.07s1.07.48,1.07,1.07v22.15c0,.59-.48,1.07-1.07,1.07Z"/><path class="cls-2" d="m42.94,21.86H12.03c-.59,0-1.07-.48-1.07-1.07s.48-1.07,1.07-1.07h30.91c.59,0,1.07.48,1.07,1.07s-.48,1.07-1.07,1.07Z"/><path class="cls-2" d="m42.72,29.35H12.03c-.59,0-1.07-.48-1.07-1.07s.48-1.07,1.07-1.07h30.69c.59,0,1.07.48,1.07,1.07s-.48,1.07-1.07,1.07Z"/><path class="cls-2" d="m42.91,44.29H12.03c-.59,0-1.07-.48-1.07-1.07s.48-1.07,1.07-1.07h30.88c.59,0,1.07.48,1.07,1.07s-.48,1.07-1.07,1.07Z"/><path class="cls-2" d="m43.04,44.27c-.59,0-1.07-.48-1.07-1.07V12.44c0-.59.48-1.07,1.07-1.07s1.07.48,1.07,1.07v30.76c0,.59-.48,1.07-1.07,1.07Z"/><path class="cls-2" d="m12.03,44.27c-.59,0-1.07-.48-1.07-1.07V12.36c0-.59.48-1.07,1.07-1.07h30.91c.59,0,1.07.48,1.07,1.07s-.48,1.07-1.07,1.07H13.1v29.77c0,.59-.48,1.07-1.07,1.07Z"/><path class="cls-2" d="m21.87,44.21c-.59,0-1.07-.48-1.07-1.07v-22.35c0-.59.48-1.07,1.07-1.07s1.07.48,1.07,1.07v22.36c0,.59-.48,1.06-1.07,1.06h0Z"/><path class="cls-2" d="m42.08,36.84H12.03c-.59,0-1.07-.48-1.07-1.07s.48-1.07,1.07-1.07h30.05c.59,0,1.07.48,1.07,1.07s-.48,1.07-1.07,1.07Z"/><path class="cls-1" d="m12.66,7.72H.93c-.51,0-.93-.42-.93-.93s.42-.93.93-.93h11.73c.51,0,.93.42.93.93s-.42.93-.93.93Z"/><path class="cls-1" d="m6.79,13.59c-.51,0-.93-.42-.93-.93V.93c0-.51.42-.93.93-.93s.93.42.93.93v11.73c0,.51-.42.93-.93.93Z"/></g></svg>