<svg xmlns="http://www.w3.org/2000/svg" width="28" height="27">
    <path fill-rule="evenodd" fill="#2E2E2E" d="M26.693 26.495H12.51a.681.681 0 0 1-.682-.68v-5.85H1.6a.681.681 0 0 1-.682-.68V.782c0-.375.305-.68.682-.68h9.819a.694.694 0 0 1 .483.199l4.363 4.354a.667.667 0 0 1 .2.481v1.496h5.864a.694.694 0 0 1 .482.2l4.364 4.353a.667.667 0 0 1 .2.481v14.149a.68.68 0 0 1-.682.68zM12.101 2.425v2.03h2.036l-2.036-2.03zm3 3.391h-3.682a.68.68 0 0 1-.681-.68V1.462H2.282v17.142h9.546V7.312c0-.375.306-.68.682-.68h2.591v-.816zm7.91 3.139v2.031h2.036l-2.036-2.031zm3.001 3.391h-3.683a.68.68 0 0 1-.681-.68V7.993h-8.456v17.142h12.82V12.346zm-.41-5.442a.681.681 0 0 1-.682-.68V4.592a.954.954 0 0 0-.954-.953h-3.809l1.018 1.016a.68.68 0 0 1-.482 1.161.678.678 0 0 1-.482-.199L18.029 3.44a.663.663 0 0 1-.147-.221.667.667 0 0 1-.053-.259v-.001c0-.089.018-.177.053-.26a.673.673 0 0 1 .147-.221L20.211.301a.684.684 0 0 1 .964 0 .68.68 0 0 1 0 .962l-1.018 1.016h3.809a2.318 2.318 0 0 1 2.318 2.313v1.632a.68.68 0 0 1-.682.68zM2.691 20.781c.377 0 .682.305.682.68v.545c0 .525.428.952.955.952h3.809l-1.019-1.016a.68.68 0 0 1 0-.962.685.685 0 0 1 .965 0l2.182 2.177a.69.69 0 0 1 .2.481l-.001.001a.684.684 0 0 1-.199.48l-2.182 2.177a.682.682 0 0 1-.965-.962l1.019-1.016H4.328a2.318 2.318 0 0 1-2.319-2.312v-.545c0-.375.305-.68.682-.68z"/>
</svg>
