<svg xmlns="http://www.w3.org/2000/svg" width="24" height="19" style=""><rect id="backgroundrect" width="100%" height="100%" x="0" y="0" fill="none" stroke="none"/>
    
<g class="currentLayer" style=""><title>Layer 1</title><path fill-rule="evenodd" fill="#000000" d="M21.248 9.8H14.46c-1.5 0-1.69-.894-1.69-1.994V2.207c0-1.1.19-1.994 1.69-1.994h6.788c1.086 0 1.968.894 1.968 1.994v5.599c0 1.1-.882 1.994-1.968 1.994zm.475-7.593a.478.478 0 0 0-.475-.481H14.46c-.675 0-.888.216-.888.481v5.599c0 .904.213.481.888.481h6.788c.263 0 .475.423.475-.481V2.207zM9.74 18.268H2.753a1.834 1.834 0 0 1-1.821-1.843v-4.916c0-1.016.817-1.843 1.821-1.843H9.74c1.04 0 1.154.827 1.154 1.843v4.916c0 1.016-.114 1.843-1.154 1.843zm-.34-6.759c0-.182-.145-.33.34-.33H2.753a.329.329 0 0 0-.328.33v4.916c0 .182.146.33.328.33H9.74c-.485 0-.34-.148-.34-.33v-4.916z" id="svg_1" class="selected" fill-opacity="1"/></g></svg>