<?xml version="1.0" encoding="UTF-8"?>
<svg xmlns="http://www.w3.org/2000/svg" xmlns:xlink="http://www.w3.org/1999/xlink" width="25px" height="25px" viewBox="0 0 25 25" version="1.1">
<g id="surface1">
<path style=" stroke:none;fill-rule:nonzero;fill:rgb(18.039216%,18.039216%,18.431373%);fill-opacity:1;" d="M 17.957031 22.542969 C 15.433594 22.542969 13.375 20.484375 13.375 17.957031 C 13.375 15.433594 15.433594 13.375 17.957031 13.375 C 20.484375 13.375 22.542969 15.433594 22.542969 17.957031 C 22.542969 20.484375 20.484375 22.542969 17.957031 22.542969 Z M 17.957031 14.710938 C 16.167969 14.710938 14.710938 16.167969 14.710938 17.957031 C 14.710938 19.746094 16.167969 21.203125 17.957031 21.203125 C 19.746094 21.203125 21.203125 19.746094 21.203125 17.957031 C 21.203125 16.167969 19.746094 14.710938 17.957031 14.710938 Z M 17.957031 14.710938 "/>
<path style=" stroke:none;fill-rule:nonzero;fill:rgb(18.039216%,18.039216%,18.431373%);fill-opacity:1;" d="M 24.332031 25 C 24.160156 25 23.988281 24.933594 23.859375 24.804688 L 20.257812 21.203125 C 19.996094 20.941406 19.996094 20.519531 20.257812 20.257812 C 20.519531 19.996094 20.941406 19.996094 21.203125 20.257812 L 24.804688 23.859375 C 25.066406 24.121094 25.066406 24.542969 24.804688 24.804688 C 24.675781 24.933594 24.5 25 24.332031 25 Z M 24.332031 25 "/>
<path style=" stroke:none;fill-rule:nonzero;fill:rgb(18.039216%,18.039216%,18.431373%);fill-opacity:1;" d="M 10.441406 9.566406 C 4.492188 9.566406 0 7.511719 0 4.785156 C 0 2.058594 4.492188 0 10.441406 0 C 16.394531 0 20.886719 2.058594 20.886719 4.785156 C 20.886719 7.511719 16.394531 9.566406 10.441406 9.566406 Z M 10.441406 1.335938 C 5.078125 1.335938 1.335938 3.152344 1.335938 4.785156 C 1.335938 6.414062 5.078125 8.230469 10.441406 8.230469 C 15.808594 8.230469 19.546875 6.414062 19.546875 4.785156 C 19.546875 3.152344 15.808594 1.335938 10.441406 1.335938 Z M 10.441406 1.335938 "/>
<path style=" stroke:none;fill-rule:nonzero;fill:rgb(18.039216%,18.039216%,18.431373%);fill-opacity:1;" d="M 10.441406 13.683594 C 4.492188 13.683594 0 11.625 0 8.898438 C 0 8.527344 0.296875 8.230469 0.667969 8.230469 C 1.039062 8.230469 1.335938 8.527344 1.335938 8.898438 C 1.335938 10.53125 5.078125 12.34375 10.441406 12.34375 C 10.941406 12.34375 11.445312 12.332031 11.9375 12.292969 C 12.308594 12.273438 12.628906 12.546875 12.648438 12.917969 C 12.675781 13.285156 12.398438 13.605469 12.027344 13.625 C 11.503906 13.664062 10.96875 13.679688 10.4375 13.679688 Z M 10.441406 13.683594 "/>
<path style=" stroke:none;fill-rule:nonzero;fill:rgb(18.039216%,18.039216%,18.431373%);fill-opacity:1;" d="M 10.441406 18.3125 C 4.492188 18.3125 0 16.253906 0 13.527344 C 0 13.160156 0.296875 12.859375 0.667969 12.859375 C 1.039062 12.859375 1.335938 13.160156 1.335938 13.527344 C 1.335938 15.160156 5.078125 16.976562 10.441406 16.976562 C 10.8125 16.976562 11.109375 17.273438 11.109375 17.644531 C 11.109375 18.015625 10.8125 18.3125 10.441406 18.3125 Z M 10.441406 18.3125 "/>
<path style=" stroke:none;fill-rule:nonzero;fill:rgb(18.039216%,18.039216%,18.431373%);fill-opacity:1;" d="M 10.441406 22.941406 C 4.492188 22.941406 0 20.886719 0 18.160156 L 0 4.785156 C 0 4.414062 0.296875 4.113281 0.667969 4.113281 C 1.039062 4.113281 1.335938 4.414062 1.335938 4.785156 L 1.335938 18.160156 C 1.335938 19.789062 5.078125 21.605469 10.441406 21.605469 C 10.8125 21.605469 11.109375 21.902344 11.109375 22.273438 C 11.109375 22.644531 10.8125 22.941406 10.441406 22.941406 Z M 10.441406 22.941406 "/>
<path style=" stroke:none;fill-rule:nonzero;fill:rgb(18.039216%,18.039216%,18.431373%);fill-opacity:1;" d="M 20.214844 11.109375 C 19.84375 11.109375 19.546875 10.8125 19.546875 10.441406 L 19.546875 4.785156 C 19.546875 4.414062 19.84375 4.113281 20.214844 4.113281 C 20.585938 4.113281 20.886719 4.414062 20.886719 4.785156 L 20.886719 10.441406 C 20.886719 10.8125 20.585938 11.109375 20.214844 11.109375 Z M 20.214844 11.109375 "/>
</g>
</svg>
