<svg xmlns="http://www.w3.org/2000/svg" width="28" height="28">
    <path fill-rule="evenodd" fill="#2E2E2E" d="M26.824 27.242a.68.68 0 0 1-.962 0l-3.374-3.382a4.785 4.785 0 0 1-2.889.974c-2.661 0-4.825-2.17-4.825-4.836 0-2.666 2.164-4.836 4.825-4.836 2.658 0 4.822 2.17 4.822 4.836 0 1.852.149 2.872-.972 2.897l3.375 3.382c1.076.266 1.076.698 0 .965zm-7.225-10.716c-1.913 0-3.466 2.314-3.466 3.472a3.471 3.471 0 0 0 3.466 3.471c1.908 0 3.991-1.557 3.991-3.471 0-1.158-2.083-3.472-3.991-3.472zm2.388-3.82c-.376 0-.68-.305-.68-.466V8.521c-1.842 2.129-5.394 3.169-9.663 3.169-4.27 0-7.824-1.04-9.666-3.169v1.866c0 1.742 3.97 4.323 9.666 4.323.536 0 1.072-.18 1.585-.53.389-.187.699.097.726.472.027.628-.257.701-.633.727a24.92 24.92 0 0 1-1.678.056c-4.27 0-7.824-1.003-9.666-2.548v2.411c0 2.112 3.97 3.684 9.666 3.684.536 0 .678.306.678.682 0 .746-.142.683-.678.683-4.27 0-7.824-1.004-9.666-2.548v2.411c0 1.742 3.97 3.684 9.666 3.684.536 0 .678.305.678.682 0 .377-.142.682-.678.682C5.358 25.258.618 23.88.618 20.21v-14c0-3.068 4.74-5.238 11.026-5.238 6.285 0 11.024 2.17 11.024 5.238v6.03c0 .161-.304.466-.681.466zM11.644 2.337c-5.696 0-9.666 1.941-9.666 3.873 0 1.553 3.97 3.494 9.666 3.494 5.694 0 9.663-1.941 9.663-3.494 0-1.932-3.969-3.873-9.663-3.873z"/>
</svg>
