<svg fill="none" height="24" viewBox="0 0 24 24" width="24" xmlns="http://www.w3.org/2000/svg"><g stroke="#222" stroke-linecap="round"><rect height="6" rx="1" transform="matrix(1 0 0 -1 14 10)" width="6"/><path d="m10 14h4c.9428 0 1.4142 0 1.7071.2929s.2929.7643.2929 1.7071v2c0 .9428 0 1.4142-.2929 1.7071s-.7643.2929-1.7071.2929h-4z"/><path d="m10 10c0-.94281 0-1.41421-.29289-1.70711-.2929-.29289-.7643-.29289-1.70711-.29289h-2c-.94281 0-1.41421 0-1.70711.29289-.29289.2929-.29289.7643-.29289 1.70711v4h6z"/><path d="m10 20h-4c-.94281 0-1.41421 0-1.70711-.2929-.29289-.2929-.29289-.7643-.29289-1.7071v-4h6z"/></g></svg>